# xmcd
#
# Track frame offsets:
#	150
#	12670
#	22775
#	36262
#	58575
#	77441
#	90095
#	101903
#	116116
#	132244
#	147143
#	162130
#
# Disc length: 2315 seconds
#
# Revision: 1
# Processed by: cddbd v1.5.2PL0 Copyright (c) Steve Scherf et al.
# Submitted via: audiograbber 1.83.01
#
DISCID=8f09090c
DTITLE=The Wild Rumpus - Love, Trains, Home
DYEAR=2008
DGENRE=Bluegrass
TTITLE0=Whiskey and Sin
TTITLE1=37 Cent Breakdown
TTITLE2=Born and Bred
TTITLE3=Ghost Town
TTITLE4=Molly Brown
TTITLE5=These Mountains
TTITLE6=Clarence and Brandine
TTITLE7=Angaline
TTITLE8=For Grandpa
TTITLE9=Maybe Apologize
TTITLE10=Lost and Found
TTITLE11=Don't Mess Around (Mama Said)
EXTD=
EXTT0=
EXTT1=
EXTT2=
EXTT3=
EXTT4=
EXTT5=
EXTT6=
EXTT7=
EXTT8=
EXTT9=
EXTT10=
EXTT11=
PLAYORDER=
